<svg xmlns="http://www.w3.org/2000/svg">
<rect width="32" height="32" rx="8" fill="#C4170C"/>
<path d="M20.0571 8.46819L23.7855 6.27667C24.1926 6.07808 24.6667 6.37451 24.6667 6.91497V20.2528C24.6667 20.5032 24.3924 20.7775 24.054 20.7775H22.3406C22.0023 20.7775 21.7279 20.5032 21.7279 20.1648V10.5461L20.5824 11.2211C20.1753 11.4186 19.7129 11.1116 19.7129 10.6597V9.01913C19.7129 8.78443 19.8463 8.57069 20.0571 8.46819Z" fill="white"/>
<path d="M12.5291 18.1783C11.0074 18.1783 9.72729 16.9705 9.72729 15.207C9.72729 13.4197 11.0074 12.2357 12.5291 12.2357C14.0509 12.2357 15.3071 13.4191 15.3071 15.207C15.3071 16.9705 14.0509 18.1783 12.5291 18.1783ZM15.9833 9.62716C15.621 9.62716 15.4038 9.84439 15.4038 10.2066V10.8344C14.7515 10.0372 13.5437 9.43323 12.3358 9.43323C9.38892 9.43323 6.85205 11.9456 6.85205 15.2309C6.85205 18.5161 9.24333 20.7868 12.263 20.7868C13.6159 20.7868 14.6543 20.159 15.2582 19.5068C15.2343 21.8014 14.0265 22.8403 11.9491 22.8403C10.8379 22.8403 9.79892 22.502 8.59164 21.7291C8.27773 21.5119 7.91549 21.5841 7.74601 21.9225L7.02153 23.3476C6.85263 23.6859 6.90097 23.9999 7.23875 24.2171C8.73665 25.1833 10.5001 25.6666 12.0219 25.6666C16.0077 25.6666 18.2057 23.5165 18.2057 18.5645V10.2066C18.2057 9.84439 17.9884 9.62716 17.6262 9.62716H15.9833Z" fill="white"/>
</svg>
